<?xml version="1.0" encoding="UTF-8"?>
<svg id="Calque_2" data-name="Calque 2" xmlns="http://www.w3.org/2000/svg" viewBox="0 0 189.97 61.6">
  <defs>
    <style>
      .cls-1 {
        fill: #1cba6f;
      }

      .cls-2 {
        fill: #191919;
      }
    </style>
  </defs>
  <g id="Calque_1-2" data-name="Calque 1">
    <g>
      <g id="Calque_1-2" data-name="Calque 1-2">
        <path class="cls-1" d="M144.16,19.44l4.71,4.71-14.73,14.73-4.71-4.71,14.73-14.73Z"/>
      </g>
      <g>
        <path class="cls-2" d="M16.63,49.3c-3.38,0-6.32-.75-8.81-2.26s-4.42-3.6-5.78-6.29c-1.36-2.69-2.04-5.82-2.04-9.39s.68-6.77,2.04-9.48c1.36-2.71,3.28-4.81,5.78-6.31s5.43-2.24,8.81-2.24,3.73.25,5.39.75,3.15,1.22,4.45,2.16c1.31.94,2.4,2.09,3.28,3.44s1.51,2.87,1.89,4.58l-7.57,1.59c-.23-.89-.55-1.71-.98-2.44s-.95-1.37-1.57-1.89c-.62-.52-1.34-.92-2.15-1.2s-1.7-.42-2.68-.42c-1.89,0-3.46.5-4.7,1.51-1.24,1.01-2.18,2.37-2.8,4.08s-.94,3.66-.94,5.84.31,4.07.94,5.79c.62,1.72,1.56,3.09,2.8,4.1,1.24,1.01,2.81,1.51,4.7,1.51s1.9-.15,2.73-.44c.82-.29,1.55-.71,2.18-1.24.63-.54,1.17-1.19,1.6-1.96.44-.77.76-1.62.97-2.55l7.57,1.59c-.37,1.74-1,3.3-1.89,4.67-.88,1.37-1.98,2.54-3.3,3.5-1.32.97-2.81,1.71-4.49,2.23-1.67.52-3.48.78-5.43.78h0Z"/>
        <path class="cls-2" d="M56.99,13.77v6.35h-21.98v-6.35h21.98ZM41.39,48.58V10.44c0-2.33.48-4.26,1.45-5.79.97-1.54,2.27-2.7,3.92-3.47,1.65-.78,3.46-1.17,5.43-1.17s2.7.11,3.8.34c1.1.23,1.91.44,2.43.62l-1.65,6.29c-.36-.1-.78-.21-1.29-.33-.51-.11-1.11-.17-1.79-.17-1.52,0-2.6.37-3.25,1.12-.65.75-.98,1.81-.98,3.18v37.52h-8.07Z"/>
        <path class="cls-2" d="M63.46,61.6V13.77h7.91v5.76h.53c.42-.83,1.01-1.72,1.78-2.68.77-.95,1.81-1.78,3.13-2.47,1.32-.69,3-1.04,5.06-1.04s5.13.68,7.29,2.05c2.16,1.37,3.88,3.39,5.15,6.06,1.28,2.67,1.92,5.93,1.92,9.79s-.62,7.07-1.87,9.75c-1.24,2.68-2.96,4.72-5.12,6.12-2.17,1.4-4.64,2.1-7.4,2.1s-3.62-.34-4.95-1.01c-1.33-.68-2.39-1.49-3.18-2.44-.79-.95-1.39-1.85-1.81-2.68h-.34v18.53h-8.1ZM79.66,42.54c1.81,0,3.32-.49,4.55-1.48,1.23-.98,2.15-2.34,2.77-4.05s.94-3.65.94-5.81-.31-4.09-.92-5.78-1.53-3.02-2.76-3.99c-1.23-.97-2.75-1.45-4.58-1.45s-3.29.47-4.52,1.4c-1.23.94-2.15,2.24-2.79,3.91-.63,1.67-.95,3.64-.95,5.9s.32,4.25.95,5.95c.63,1.7,1.57,3.02,2.8,3.97s2.73,1.42,4.5,1.42h0Z"/>
        <path class="cls-2" d="M119.36,13.77v6.35h-19.77v-6.35h19.77ZM104.54,5.49h8.1v33.29c0,1.27.27,2.2.81,2.79.54.59,1.42.89,2.65.89s.87-.05,1.48-.14,1.11-.18,1.48-.26l1.28,6.26c-.89.27-1.81.46-2.74.58-.94.11-1.83.17-2.68.17-3.34,0-5.91-.83-7.69-2.49s-2.68-4.03-2.68-7.1V5.49h0Z"/>
      </g>
      <path class="cls-2" d="M174.6,49.87c-3.51,0-6.52-.74-9.04-2.21-2.52-1.47-4.46-3.55-5.82-6.22-1.36-2.68-2.04-5.83-2.04-9.46s.67-6.73,2.01-9.43c1.34-2.7,3.24-4.81,5.69-6.33s5.35-2.29,8.67-2.29,4.13.34,6.05,1.03c1.92.68,3.62,1.74,5.1,3.18,1.48,1.43,2.64,3.25,3.48,5.46.84,2.21,1.26,4.84,1.26,7.89v2.55h-28.45v-5.51h24.43l-3.8,1.62c0-1.95-.3-3.67-.9-5.15-.6-1.48-1.5-2.64-2.69-3.47-1.19-.83-2.68-1.24-4.47-1.24s-3.3.42-4.55,1.26c-1.24.84-2.19,1.96-2.85,3.36-.65,1.4-.98,2.96-.98,4.68v3.8c0,2.2.37,4.06,1.12,5.57.75,1.52,1.79,2.66,3.14,3.42s2.92,1.15,4.7,1.15,2.25-.17,3.22-.51c.97-.34,1.8-.85,2.5-1.53.71-.68,1.24-1.5,1.59-2.47l7.44,1.53c-.56,1.87-1.52,3.5-2.86,4.9-1.35,1.4-3.03,2.49-5.06,3.27s-4.33,1.17-6.93,1.17h0Z"/>
    </g>
  </g>
</svg>